<?xml version="1.0" encoding="UTF-8"?>
<svg version="1.1" xmlns="http://www.w3.org/2000/svg" width="481" height="481">
<path d="M0 0 C13.53 0 27.06 0 41 0 C41.33 38.28 41.66 76.56 42 116 C48.32337176 107.37722033 54.61812906 98.79291985 60.6875 90 C62.06501254 88.01165527 63.44261945 86.02337591 64.8203125 84.03515625 C65.51157227 83.03629395 66.20283203 82.03743164 66.91503906 81.00830078 C68.95632035 78.0630235 71.00411898 75.12241096 73.0546875 72.18359375 C83.26643285 57.54675875 93.34871333 42.82527809 103.35441589 28.04690552 C104.88377803 25.78858297 106.4145298 23.53120385 107.94534302 21.27386475 C109.02884079 19.67467921 110.11003873 18.07393622 111.19116211 16.47314453 C111.86155518 15.48427246 112.53194824 14.49540039 113.22265625 13.4765625 C114.10062866 12.178396 114.10062866 12.178396 114.99633789 10.85400391 C115.98815063 9.44127197 115.98815063 9.44127197 117 8 C117.37950806 7.30916321 117.75901611 6.61832642 118.15002441 5.90655518 C120.19261081 2.54928081 121.64403001 0.37030983 125.54011536 -0.69369507 C128.71046047 -0.92703544 131.7841952 -0.89979703 134.9609375 -0.78125 C136.10664215 -0.76993042 137.2523468 -0.75861084 138.43276978 -0.74694824 C142.08190125 -0.70226563 145.72706214 -0.60190576 149.375 -0.5 C151.85280773 -0.45986308 154.33067722 -0.4233627 156.80859375 -0.390625 C162.873744 -0.30255684 168.93658837 -0.16879757 175 0 C168.71930064 9.4951399 168.71930064 9.4951399 165.7734375 13.4375 C164.94767212 14.54847046 164.94767212 14.54847046 164.10522461 15.68188477 C163.53425049 16.44686279 162.96327637 17.21184082 162.375 18 C157.31600946 24.82050173 152.3515374 31.69612926 147.47460938 38.64770508 C143.27368756 44.63039237 139.00176314 50.55962378 134.71459961 56.48071289 C131.46040325 60.97590393 128.22008538 65.4803168 125 70 C119.60685455 77.56622382 114.16203622 85.09489169 108.71728516 92.62402344 C106.93906666 95.08430527 105.16265463 97.54588255 103.38671875 100.0078125 C102.79866455 100.82282227 102.21061035 101.63783203 101.60473633 102.47753906 C100.47801597 104.0392037 99.35153881 105.60104385 98.2253418 107.16308594 C97.71527588 107.86981445 97.20520996 108.57654297 96.6796875 109.3046875 C96.23351074 109.92327637 95.78733398 110.54186523 95.32763672 111.17919922 C94 113 94 113 92.27001953 114.98095703 C90.81509105 116.86899684 90.81509105 116.86899684 91.08300781 118.88476562 C92.33000853 121.76123374 93.9372049 124.22999673 95.671875 126.84375 C96.25073708 127.72136742 96.25073708 127.72136742 96.84129333 128.61671448 C98.13891821 130.58135755 99.44449691 132.5405849 100.75 134.5 C101.67414886 135.89602922 102.597718 137.29244235 103.52075195 138.68920898 C105.55305483 141.76313035 107.58840765 144.83500467 109.62548828 147.90576172 C113.26072022 153.38911667 116.87918497 158.88345374 120.49609375 164.37890625 C121.78352094 166.33464049 123.07095584 168.29036965 124.35839844 170.24609375 C124.99386597 171.21144043 125.6293335 172.17678711 126.28405762 173.17138672 C136.54469876 188.75613787 146.85349155 204.30664261 157.22801208 219.81575012 C159.72549442 223.55012541 162.2215406 227.28545925 164.71728516 231.02099609 C166.00620446 232.9492616 167.29593902 234.87698237 168.58642578 236.80419922 C170.46860515 239.61544233 172.34787819 242.42860794 174.2265625 245.2421875 C175.09820541 246.54190994 175.09820541 246.54190994 175.98745728 247.8678894 C176.51576141 248.66027008 177.04406555 249.45265076 177.58837891 250.26904297 C178.28926132 251.31703568 178.28926132 251.31703568 179.00430298 252.38619995 C180 254 180 254 180 255 C172.81725342 255.51055595 165.63920558 255.85854665 158.44238281 256.09863281 C156.00050246 256.19873634 153.55980753 256.33489933 151.12207031 256.50878906 C131.41739303 257.8782883 131.41739303 257.8782883 125.75286865 253.10736084 C121.90624866 248.37537164 119.4437737 243.13524292 117.12690735 237.52972412 C115.38155301 233.61168688 113.03635938 230.15762637 110.625 226.625 C109.71762998 225.24116846 108.81242263 223.85591454 107.91015625 222.46875 C107.44367676 221.75460937 106.97719727 221.04046875 106.49658203 220.3046875 C103.65593788 215.93018818 100.86056613 211.52680784 98.0625 207.125 C97.46985352 206.19276611 96.87720703 205.26053223 96.26660156 204.30004883 C90.99506572 196.00148701 85.74317761 187.69057638 80.49853516 179.375 C78.92069208 176.87430638 77.3413925 174.37453756 75.76171875 171.875 C75.22627441 171.02768311 74.69083008 170.18036621 74.13916016 169.30737305 C73.12462544 167.70199518 72.1099855 166.09668381 71.09521484 164.49145508 C70.63195801 163.75822021 70.16870117 163.02498535 69.69140625 162.26953125 C69.02069092 161.21113037 69.02069092 161.21113037 68.33642578 160.13134766 C67.41664055 158.66446328 66.50943331 157.18964116 65.61279297 155.70849609 C64.95174561 154.62109131 64.95174561 154.62109131 64.27734375 153.51171875 C63.88667725 152.86033936 63.49601074 152.20895996 63.09350586 151.5378418 C62.06532861 149.83692506 62.06532861 149.83692506 60 149 C59.75636719 149.55042969 59.51273437 150.10085938 59.26171875 150.66796875 C57.72698711 153.50460897 55.86027986 155.8206233 53.8125 158.3125 C53.07644531 159.21613281 52.34039062 160.11976563 51.58203125 161.05078125 C49 164 49 164 47.24832153 165.14923096 C43.41449031 167.92935675 42.14096196 170.16536019 41.3455658 174.87492371 C40.99941893 179.93307062 41.05553177 184.99169974 41.09765625 190.05859375 C41.08826632 191.93190746 41.07580554 193.80520808 41.06040955 195.67848206 C41.0282305 200.59257413 41.03760896 205.50573143 41.05578613 210.41986084 C41.06892352 216.32463853 41.03019299 222.22927862 41.00020599 228.13396454 C40.96050594 237.08982997 40.98649072 246.04334527 41 255 C27.47 255 13.94 255 0 255 C0 170.85 0 86.7 0 0 Z " fill="#262626" transform="translate(241,113)"/>
<path d="M0 0 C11.22348382 10.54763022 17.7291933 23.37710218 19.6875 38.6875 C19.6875 44.9575 19.6875 51.2275 19.6875 57.6875 C6.4875 57.6875 -6.7125 57.6875 -20.3125 57.6875 C-20.9725 52.7375 -21.6325 47.7875 -22.3125 42.6875 C-26.20955954 32.80227581 -30.3548573 26.86423882 -40.1015625 22.4140625 C-53.85610145 17.29693851 -69.31101023 17.16273785 -82.75 23.3125 C-90.09472938 27.32761873 -95.18681769 32.87329423 -98.3125 40.6875 C-100.53911743 50.09574266 -99.81060838 58.23627838 -95.234375 66.67578125 C-85.6899352 81.48116227 -63.24778585 87.00110475 -47.62332153 92.77709961 C7.89204906 113.31181047 7.89204906 113.31181047 20.6875 139.6875 C28.62153297 158.84932897 28.72316136 179.94349381 21.22265625 199.33984375 C12.47471916 218.41613404 -3.22512938 230.08340893 -22.3125 237.6875 C-50.15729416 247.31636873 -80.54527283 245.92504737 -107.3125 233.6875 C-115.31809451 229.55619439 -121.9028423 223.96875053 -128.3125 217.6875 C-129.01246094 217.02363281 -129.71242188 216.35976563 -130.43359375 215.67578125 C-144.43070921 201.35124788 -148.3125 182.01894999 -148.3125 162.6875 C-134.4525 162.6875 -120.5925 162.6875 -106.3125 162.6875 C-105.3225 167.6375 -104.3325 172.5875 -103.3125 177.6875 C-101.73053714 181.15902961 -100.46336707 183.68339641 -98.3125 186.6875 C-97.85488281 187.37199219 -97.39726563 188.05648437 -96.92578125 188.76171875 C-91.02529602 196.56462743 -81.24760498 201.12911241 -71.8125 203.125 C-57.39691985 205.024564 -41.50294233 204.43224985 -29.3125 195.6875 C-21.55417722 189.16345585 -17.92320558 181.28312023 -17 171.3125 C-17.7902314 162.14581579 -20.94539955 154.82320803 -27.5 148.3125 C-38.52493543 139.19802269 -53.17524426 135.22914328 -66.46582031 130.6071167 C-93.43256661 121.21366765 -122.81599156 110.57226215 -137.0625 83.8125 C-145.64102171 65.69601666 -145.44444589 44.31660794 -139.28125 25.546875 C-136.43506167 18.04678414 -132.38607422 11.87214764 -127.3125 5.6875 C-126.53132813 4.73423828 -126.53132813 4.73423828 -125.734375 3.76171875 C-112.20835136 -11.09641328 -89.61405749 -18.70473317 -70.07421875 -20.18359375 C-44.83037376 -21.36187789 -19.44938488 -17.48136468 0 0 Z " fill="#272727" transform="translate(207.3125,129.3125)"/>
<path d="M0 0 C0.33 0 0.66 0 1 0 C1.95835169 4.79175844 2.31383984 9.13548248 2 14 C0.484375 16.2421875 0.484375 16.2421875 -1 18 C-1.02690844 15.37493198 -1.04679404 12.75013827 -1.0625 10.125 C-1.07087891 9.37863281 -1.07925781 8.63226563 -1.08789062 7.86328125 C-1.11328125 2.2265625 -1.11328125 2.2265625 0 0 Z " fill="#333333" transform="translate(232,289)"/>
<path d="M0 0 C2.0625 0.4375 2.0625 0.4375 4 1 C3.01 1.495 3.01 1.495 2 2 C1.53101037 4.8159849 1.53101037 4.8159849 1.375 8.0625 C1.30023438 9.16722656 1.22546875 10.27195312 1.1484375 11.41015625 C1.09945312 12.26480469 1.05046875 13.11945313 1 14 C0.01 13.34 -0.98 12.68 -2 12 C-1.85962479 10.18706911 -1.71255111 8.3746557 -1.5625 6.5625 C-1.48128906 5.55316406 -1.40007813 4.54382813 -1.31640625 3.50390625 C-1 1 -1 1 0 0 Z " fill="#2E2E2E" transform="translate(61,293)"/>
<path d="M0 0 C0.886875 0.144375 1.77375 0.28875 2.6875 0.4375 C1.29628255 3.2199349 -0.61414212 3.98960065 -3.3125 5.4375 C-3.9725 5.4375 -4.6325 5.4375 -5.3125 5.4375 C-5.6425 6.4275 -5.9725 7.4175 -6.3125 8.4375 C-6.9725 8.1075 -7.6325 7.7775 -8.3125 7.4375 C-4.35626368 0.57535558 -4.35626368 0.57535558 0 0 Z " fill="#1E1D1D" transform="translate(366.3125,113.5625)"/>
<path d="M0 0 C4.82360189 -0.19294408 8.49646738 0.24252386 13 2 C9.92677456 2.91058531 7.19902639 3.08886184 4 3 C4 2.34 4 1.68 4 1 C2.68 0.67 1.36 0.34 0 0 Z " fill="#141414" transform="translate(163,111)"/>
</svg>
