<?xml version="1.0" encoding="UTF-8"?>
<svg version="1.1" xmlns="http://www.w3.org/2000/svg" width="451" height="451">
<path d="M0 0 C22.83762716 -0.54321412 46.22388344 4.20029254 63.81640625 19.59375 C65.39427152 21.09863586 66.95805741 22.61849461 68.50390625 24.15625 C69.12910156 24.74664062 69.75429687 25.33703125 70.3984375 25.9453125 C84.67939763 40.58087886 86.50390625 59.61330713 86.50390625 79.15625 C72.64390625 79.15625 58.78390625 79.15625 44.50390625 79.15625 C43.51390625 74.20625 42.52390625 69.25625 41.50390625 64.15625 C37.38849208 54.09634869 32.13379705 47.73782989 22.171875 43.15625 C9.59682995 38.44290954 -4.70343035 38.88944252 -17.12109375 43.84375 C-24.95086782 47.59926995 -30.50206383 52.95226972 -33.49609375 61.15625 C-35.8451807 68.8066548 -35.27732441 76.84996343 -31.859375 84.0234375 C-20.44312105 101.88382333 4.19155243 108.26894505 23.00390625 115.09375 C39.05380622 120.93533726 55.27643116 127.07503189 68.50390625 138.15625 C69.22449219 138.71699219 69.94507813 139.27773437 70.6875 139.85546875 C81.43778022 148.57355989 88.45590266 161.51175857 90.50390625 175.15625 C92.1775259 197.96370982 89.90520393 218.82840189 74.6171875 236.8515625 C58.05182359 254.91730133 34.63854821 262.98608554 10.50390625 264.15625 C9.28960937 264.218125 9.28960937 264.218125 8.05078125 264.28125 C-15.80432146 264.86665129 -39.70352204 259.35788444 -58.49609375 244.15625 C-59.2025 243.62515625 -59.90890625 243.0940625 -60.63671875 242.546875 C-72.25442202 233.30759917 -79.64109887 219.10086013 -82.30859375 204.71875 C-82.43282715 204.05133789 -82.55706055 203.38392578 -82.68505859 202.69628906 C-83.71552976 196.34907379 -83.49609375 190.80644553 -83.49609375 184.15625 C-69.96609375 184.15625 -56.43609375 184.15625 -42.49609375 184.15625 C-41.17609375 189.43625 -39.85609375 194.71625 -38.49609375 200.15625 C-32.42105179 211.45865366 -23.74083646 218.35190855 -11.49609375 222.15625 C2.53082872 225.6311426 18.30135815 225.58346809 31.44140625 218.96875 C38.33793974 214.66162128 43.11009682 208.64628668 45.84765625 201 C47.78834243 192.59035988 47.55168141 183.83306495 43.50390625 176.15625 C37.98751634 169.5365821 30.44161011 164.71340918 22.69140625 161.09375 C21.91007324 160.72435303 21.12874023 160.35495605 20.32373047 159.97436523 C11.7777657 156.06970234 2.95114492 152.92989223 -5.87109375 149.71875 C-42.0165408 136.54994867 -42.0165408 136.54994867 -55.49609375 125.15625 C-56.79740234 124.11210937 -56.79740234 124.11210937 -58.125 123.046875 C-70.26198231 112.84529821 -78.05924789 98.0014669 -79.49609375 82.15625 C-80.72740387 59.77279108 -74.84087223 41.60921498 -60.8515625 24.09765625 C-47.64357458 9.61902646 -25.35478006 1.52829235 -6.1484375 0.25 C-4.09854495 0.1775443 -2.04912718 0.0915811 0 0 Z " fill="#FBFAFB" transform="translate(131.49609375,96.84375)"/>
<path d="M0 0 C13.53 0 27.06 0 41 0 C41 37.62 41 75.24 41 114 C50.47135212 104.52864788 57.65264208 91.40542823 65.28759766 80.45166016 C67.88733214 76.72959946 70.50466412 73.02007456 73.125 69.3125 C73.61218506 68.6230127 74.09937012 67.93352539 74.60131836 67.22314453 C75.57817403 65.84090269 76.55514286 64.45874081 77.53222656 63.07666016 C80.02320984 59.55232487 82.51148065 56.02607528 85 52.5 C87.97526452 48.28423746 90.95099792 44.06881222 93.9296875 39.85546875 C100.04152255 31.2077752 106.12874442 22.54329224 112.19287109 13.86206055 C112.74668457 13.06968994 113.30049805 12.27731934 113.87109375 11.4609375 C114.35505615 10.76790527 114.83901855 10.07487305 115.33764648 9.36083984 C115.88622314 8.5817627 116.4347998 7.80268555 117 7 C117.2913533 6.40217209 117.5827066 5.80434418 117.88288879 5.18840027 C119.07559492 3.01794598 120.08619999 1.58541979 122 0 C126.0296425 -0.9835702 129.95545947 -0.81512299 134.08203125 -0.68359375 C135.25134689 -0.67368912 136.42066254 -0.66378448 137.62541199 -0.65357971 C141.3557236 -0.61443232 145.08307968 -0.52659878 148.8125 -0.4375 C151.34305643 -0.40238709 153.87365904 -0.37044808 156.40429688 -0.34179688 C162.60387091 -0.26466872 168.80172433 -0.1475723 175 0 C172.85014654 3.85525911 170.76859145 7.53623063 168.00390625 10.98828125 C167.45202637 11.68518066 166.90014648 12.38208008 166.33154297 13.10009766 C165.74775879 13.83019043 165.16397461 14.5602832 164.5625 15.3125 C159.69058336 21.48699986 154.95142741 27.72827638 150.375 34.125 C146.33058615 39.77621561 142.24647767 45.38866945 138.0625 50.9375 C131.90634327 59.1046815 125.84029697 67.33655947 119.78222656 75.57666016 C117.43774201 78.76451682 115.09059638 81.95040317 112.74169922 85.13500977 C111.5871895 86.70267666 110.43513957 88.27215825 109.28564453 89.84350586 C106.22446025 94.02151495 103.11757012 98.15374184 99.9375 102.2421875 C99.27878906 103.10134766 98.62007813 103.96050781 97.94140625 104.84570312 C96.67232912 106.49907825 95.38896263 108.14160824 94.08984375 109.77148438 C93.52394531 110.51462891 92.95804687 111.25777344 92.375 112.0234375 C91.61316406 112.99676025 91.61316406 112.99676025 90.8359375 113.98974609 C89.7376461 116.04715254 89.7376461 116.04715254 90.69189453 118.4831543 C91.90078632 120.80910902 93.14670276 123.03553243 94.5546875 125.24609375 C95.07554932 126.06609863 95.59641113 126.88610352 96.13305664 127.73095703 C96.9953186 129.0706958 96.9953186 129.0706958 97.875 130.4375 C98.4930249 131.40284668 99.1110498 132.36819336 99.74780273 133.36279297 C105.57292309 142.41805794 111.54647872 151.37354811 117.53613281 160.3203125 C126.70400302 174.01926173 135.76313582 187.78951462 144.82446289 201.55908203 C152.6732287 213.48411846 160.53012882 225.40294376 168.53125 237.2265625 C169.03140625 237.96777344 169.5315625 238.70898438 170.046875 239.47265625 C171.0435272 240.94888034 172.0437143 242.42272224 173.046875 243.89453125 C173.53671875 244.62285156 174.0265625 245.35117187 174.53125 246.1015625 C175.17416992 247.05023193 175.17416992 247.05023193 175.83007812 248.01806641 C177.15728872 250.26645865 178.08484317 252.55834889 179 255 C139.15826751 261.4037617 139.15826751 261.4037617 126.55249023 253.45709229 C116.44973834 244.74789207 110.76921914 231.45743004 104.96240234 219.72265625 C100.79871716 211.45282183 95.58732543 203.90138857 90.37475586 196.26776123 C87.74086712 192.3888604 85.17986156 188.46267679 82.61328125 184.5390625 C81.65226193 183.07557936 80.6908463 181.61235638 79.72900391 180.14941406 C79.27156799 179.45352173 78.81413208 178.75762939 78.34283447 178.04064941 C76.65168111 175.47067435 74.9565437 172.90334453 73.26089478 170.33633423 C71.48309629 167.64308293 69.71074502 164.94625068 67.9375 162.25 C67.3177832 161.31526855 66.69806641 160.38053711 66.05957031 159.41748047 C65.51268555 158.58361816 64.96580078 157.74975586 64.40234375 156.890625 C63.93304443 156.17938477 63.46374512 155.46814453 62.98022461 154.73535156 C62 153 62 153 62 151 C61.33396255 151.68944199 60.66792511 152.37888397 59.98170471 153.08921814 C57.85401956 155.23052159 55.62348584 157.15878021 53.28965759 159.07203674 C46.94813385 164.48640795 41.41930912 169.36214254 40.34119511 177.96598721 C40.10220567 182.27152606 40.17659198 186.53228302 40.31640625 190.83984375 C40.32196038 192.70169791 40.32085725 194.56358255 40.3134613 196.4254303 C40.31173889 201.27571285 40.39908372 206.12024763 40.50646973 210.96917725 C40.61678555 216.8133925 40.61391989 222.65856602 40.63051605 228.50365448 C40.66803325 237.33945325 40.84718834 246.16207001 41 255 C27.47 255 13.94 255 0 255 C0 170.85 0 86.7 0 0 Z " fill="#FBFBFB" transform="translate(231,101)"/>
<path d="M0 0 C13.53 0 27.06 0 41 0 C40.34 0.99 39.68 1.98 39 3 C36.23371085 3.2667616 33.69380369 3.34804189 30.9296875 3.29296875 C30.13345978 3.28872391 29.33723206 3.28447906 28.51687622 3.28010559 C25.96924271 3.26328834 23.42239511 3.22563179 20.875 3.1875 C19.14975099 3.17245705 17.42448961 3.15876796 15.69921875 3.14648438 C11.46584218 3.11337501 7.23305441 3.06157285 3 3 C3.061875 3.7425 3.12375 4.485 3.1875 5.25 C3 8 3 8 0 12 C0 8.04 0 4.08 0 0 Z " fill="#D0CFD0" transform="translate(48,281)"/>
</svg>
